<svg width="32" height="32" viewBox="0 0 32 32" fill="none" xmlns="http://www.w3.org/2000/svg">
<path d="M8.06784 13.0151C8.30627 11.0793 9.24437 9.29749 10.7054 8.00537C12.1664 6.71325 14.0496 6 16 6C17.9504 6 19.8336 6.71325 21.2946 8.00537C22.7556 9.29749 23.6937 11.0793 23.9322 13.0151C25.6151 13.1257 27.1889 13.8867 28.3207 15.137C29.4525 16.3874 30.0534 18.0291 29.9963 19.7146C29.9392 21.4002 29.2285 22.9974 28.0147 24.1683C26.8009 25.3392 25.1791 25.9919 23.4926 25.9883H8.50741C6.82089 25.9919 5.19914 25.3392 3.98532 24.1683C2.77149 22.9974 2.06084 21.4002 2.00373 19.7146C1.94662 18.0291 2.54753 16.3874 3.67931 15.137C4.8111 13.8867 6.38495 13.1257 8.06784 13.0151Z" fill="#BAE6FF"/>
</svg>
