<svg width="32" height="32" viewBox="0 0 32 32" fill="none" xmlns="http://www.w3.org/2000/svg">
<path d="M16 2C16.3481 2 16.6819 2.13828 16.9281 2.38442C17.1742 2.63056 17.3125 2.9644 17.3125 3.3125V7.145L19.885 4.5725C20.0052 4.44355 20.1501 4.34012 20.3111 4.26838C20.4721 4.19665 20.6459 4.15807 20.8221 4.15496C20.9983 4.15186 21.1734 4.18427 21.3368 4.25029C21.5002 4.3163 21.6487 4.41455 21.7733 4.53918C21.8979 4.66382 21.9962 4.81228 22.0622 4.9757C22.1282 5.13913 22.1606 5.31418 22.1575 5.49041C22.1544 5.66664 22.1159 5.84044 22.0441 6.00144C21.9724 6.16244 21.869 6.30734 21.74 6.4275L17.3125 10.855V14.6875H21.145L25.5725 10.26C25.6927 10.131 25.8376 10.0276 25.9986 9.95588C26.1596 9.88415 26.3334 9.84557 26.5096 9.84247C26.6858 9.83936 26.8609 9.87177 27.0243 9.93779C27.1877 10.0038 27.3362 10.102 27.4608 10.2267C27.5854 10.3513 27.6837 10.4998 27.7497 10.6632C27.8157 10.8266 27.8481 11.0017 27.845 11.1779C27.8419 11.3541 27.8034 11.5279 27.7316 11.6889C27.6599 11.8499 27.5565 11.9948 27.4275 12.115L24.855 14.6875H28.6875C29.0356 14.6875 29.3694 14.8258 29.6156 15.0719C29.8617 15.3181 30 15.6519 30 16C30 16.3481 29.8617 16.6819 29.6156 16.9281C29.3694 17.1742 29.0356 17.3125 28.6875 17.3125H24.855L27.4275 19.885C27.5565 20.0052 27.6599 20.1501 27.7316 20.3111C27.8034 20.4721 27.8419 20.6459 27.845 20.8221C27.8481 20.9983 27.8157 21.1734 27.7497 21.3368C27.6837 21.5002 27.5854 21.6487 27.4608 21.7733C27.3362 21.8979 27.1877 21.9962 27.0243 22.0622C26.8609 22.1282 26.6858 22.1606 26.5096 22.1575C26.3334 22.1544 26.1596 22.1159 25.9986 22.0441C25.8376 21.9724 25.6927 21.869 25.5725 21.74L21.145 17.3125H17.3125V21.145L21.74 25.5725C21.869 25.6927 21.9724 25.8376 22.0441 25.9986C22.1159 26.1596 22.1544 26.3334 22.1575 26.5096C22.1606 26.6858 22.1282 26.8609 22.0622 27.0243C21.9962 27.1877 21.8979 27.3362 21.7733 27.4608C21.6487 27.5854 21.5002 27.6837 21.3368 27.7497C21.1734 27.8157 20.9983 27.8481 20.8221 27.845C20.6459 27.8419 20.4721 27.8034 20.3111 27.7316C20.1501 27.6599 20.0052 27.5565 19.885 27.4275L17.3125 24.855V28.6875C17.3125 29.0356 17.1742 29.3694 16.9281 29.6156C16.6819 29.8617 16.3481 30 16 30C15.6519 30 15.3181 29.8617 15.0719 29.6156C14.8258 29.3694 14.6875 29.0356 14.6875 28.6875V24.855L12.115 27.4275C11.8662 27.6593 11.5371 27.7856 11.1971 27.7796C10.8571 27.7736 10.5326 27.6358 10.2922 27.3953C10.0517 27.1549 9.91394 26.8304 9.90794 26.4904C9.90194 26.1504 10.0282 25.8213 10.26 25.5725L14.6875 21.145V17.3125H10.855L6.4275 21.74C6.17869 21.9718 5.84961 22.0981 5.50959 22.0921C5.16956 22.0861 4.84513 21.9483 4.60466 21.7078C4.36419 21.4674 4.22644 21.1429 4.22044 20.8029C4.21444 20.4629 4.34066 20.1338 4.5725 19.885L7.145 17.3125H3.3125C2.9644 17.3125 2.63056 17.1742 2.38442 16.9281C2.13828 16.6819 2 16.3481 2 16C2 15.6519 2.13828 15.3181 2.38442 15.0719C2.63056 14.8258 2.9644 14.6875 3.3125 14.6875H7.145L4.5725 12.115C4.34066 11.8662 4.21444 11.5371 4.22044 11.1971C4.22644 10.8571 4.36419 10.5326 4.60466 10.2922C4.84513 10.0517 5.16956 9.91394 5.50959 9.90794C5.84961 9.90194 6.17869 10.0282 6.4275 10.26L10.855 14.6875H14.6875V10.855L10.26 6.4275C10.0282 6.17869 9.90194 5.84961 9.90794 5.50959C9.91394 5.16956 10.0517 4.84513 10.2922 4.60466C10.5326 4.36419 10.8571 4.22644 11.1971 4.22044C11.5371 4.21444 11.8662 4.34066 12.115 4.5725L14.6875 7.145V3.3125C14.6875 2.9644 14.8258 2.63056 15.0719 2.38442C15.3181 2.13828 15.6519 2 16 2Z" fill="#BAE6FF"/>
</svg>
