<svg width="76" height="76" viewBox="0 0 76 76" fill="none" xmlns="http://www.w3.org/2000/svg">
<rect width="76" height="76" fill="#FEF5EA"/>
<path d="M50.5083 38.9499L37.05 25.4916C36.7333 25.1749 36.5096 24.8318 36.3787 24.4624C36.2478 24.0929 36.1813 23.6971 36.1792 23.2749C36.1771 22.8527 36.2436 22.4568 36.3787 22.0874C36.5138 21.7179 36.7376 21.3749 37.05 21.0582L50.5083 7.59989C50.825 7.28322 51.1681 7.05944 51.5375 6.92855C51.9069 6.79766 52.3028 6.73116 52.725 6.72905C53.1472 6.72694 53.5431 6.79344 53.9125 6.92855C54.2819 7.06366 54.625 7.28744 54.9417 7.59989L68.4 21.0582C68.7167 21.3749 68.9415 21.7179 69.0745 22.0874C69.2075 22.4568 69.2729 22.8527 69.2708 23.2749C69.2687 23.6971 69.2033 24.0929 69.0745 24.4624C68.9457 24.8318 68.7209 25.1749 68.4 25.4916L54.9417 38.9499C54.625 39.2666 54.2819 39.4914 53.9125 39.6244C53.5431 39.7574 53.1472 39.8228 52.725 39.8207C52.3028 39.8186 51.9069 39.7532 51.5375 39.6244C51.1681 39.4956 50.825 39.2708 50.5083 38.9499ZM9.5 31.6666V12.6666C9.5 11.7693 9.804 11.0178 10.412 10.4119C11.02 9.806 11.7716 9.502 12.6667 9.49989H31.6667C32.5639 9.49989 33.3165 9.80389 33.9245 10.4119C34.5325 11.0199 34.8354 11.7714 34.8333 12.6666V31.6666C34.8333 32.5638 34.5293 33.3164 33.9213 33.9244C33.3133 34.5324 32.5618 34.8353 31.6667 34.8332H12.6667C11.7694 34.8332 11.0179 34.5292 10.412 33.9212C9.80611 33.3132 9.50211 32.5617 9.5 31.6666ZM41.1667 63.3332V44.3332C41.1667 43.436 41.4707 42.6844 42.0787 42.0786C42.6867 41.4727 43.4382 41.1687 44.3333 41.1666H63.3333C64.2306 41.1666 64.9832 41.4706 65.5912 42.0786C66.1992 42.6866 66.5021 43.4381 66.5 44.3332V63.3332C66.5 64.2305 66.196 64.9831 65.588 65.5911C64.98 66.1991 64.2284 66.502 63.3333 66.4999H44.3333C43.4361 66.4999 42.6846 66.1959 42.0787 65.5879C41.4728 64.9799 41.1688 64.2283 41.1667 63.3332ZM9.5 63.3332V44.3332C9.5 43.436 9.804 42.6844 10.412 42.0786C11.02 41.4727 11.7716 41.1687 12.6667 41.1666H31.6667C32.5639 41.1666 33.3165 41.4706 33.9245 42.0786C34.5325 42.6866 34.8354 43.4381 34.8333 44.3332V63.3332C34.8333 64.2305 34.5293 64.9831 33.9213 65.5911C33.3133 66.1991 32.5618 66.502 31.6667 66.4999H12.6667C11.7694 66.4999 11.0179 66.1959 10.412 65.5879C9.80611 64.9799 9.50211 64.2283 9.5 63.3332Z" fill="black"/>
<g clip-path="url(#clip0_493_171)">
<path d="M45.7106 46.9784C46.106 46.9784 46.4937 47.0526 46.8738 47.2011C47.2613 47.3496 47.5952 47.5635 47.8757 47.8428C48.1562 48.1166 48.3585 48.4221 48.4826 48.7594L49.9419 52.9669L51.1428 49.4653C51.7276 47.7584 52.6556 46.905 53.9267 46.905C54.2072 46.905 54.5451 46.9671 54.9405 47.0911C55.386 47.2317 55.7612 47.4789 56.0662 47.8327C56.3717 48.1871 56.6483 48.7316 56.8958 49.4662L58.0838 52.9679L59.5559 48.7604C59.6714 48.4304 59.8697 48.1254 60.1508 47.8455C60.4393 47.565 60.769 47.3502 61.1399 47.2011C61.5115 47.0526 61.9035 46.9784 62.316 46.9784C62.6949 47.0028 63.0741 47.1061 63.4536 47.2882C63.9321 47.5192 64.3073 47.8571 64.5793 48.302C64.8598 48.7481 65 49.2554 65 49.8237C65 50.3187 64.8888 50.7893 64.6663 51.2354L60.7934 59.1664C60.167 60.4534 59.2391 61.0969 58.0095 61.0969C57.4564 61.0724 56.9572 60.8992 56.5117 60.5771C56.0668 60.2471 55.7206 59.7894 55.4731 59.2039L54 55.5767L52.5278 59.2021C52.3793 59.5896 52.1816 59.9235 51.9347 60.204C51.6866 60.4772 51.3979 60.6917 51.0685 60.8475C50.7385 61.0046 50.392 61.0871 50.029 61.095C49.4099 61.095 48.8737 60.9465 48.4203 60.6495C47.9668 60.344 47.5705 59.849 47.2313 59.1645L43.3593 51.2344C43.1198 50.7315 43 50.2609 43 49.8228C43 49.2789 43.1406 48.7802 43.4217 48.3268C43.7022 47.8648 44.0853 47.5183 44.5712 47.2873C44.9513 47.1058 45.3311 47.0028 45.7106 46.9784Z" fill="#FEF5EA"/>
</g>
<g clip-path="url(#clip1_493_171)">
<path d="M47.7559 14.5317L49.2601 13.1529C49.3085 13.1486 49.3446 13.1417 49.3788 13.1301C49.7635 13.0009 50.1388 12.8157 50.5342 12.7517C51.6792 12.5646 52.8311 12.4182 53.9823 12.2721C54.5169 12.2036 55.0557 12.1488 55.5934 12.1341C55.9929 12.1229 56.3464 12.3053 56.6186 12.5972L65.1645 21.7989C65.2833 21.9275 65.384 22.0799 65.4629 22.2365C65.8231 22.9499 65.8206 23.6693 65.3937 24.3459C65.1684 24.7025 64.8756 25.0203 64.5894 25.3337C64.1433 25.823 63.6764 26.2933 63.219 26.7723L62.3559 27.6807L60.9688 29.1298L60.1191 30.024L58.7174 31.486L57.9808 32.2285C57.9574 32.2526 57.9666 32.3082 57.9612 32.3491C57.3785 32.8903 56.7963 33.4312 56.1999 33.9676C56.151 33.9714 56.1129 33.9733 56.0812 33.9895C55.6305 34.2165 55.1505 34.2968 54.6568 34.2246C53.9738 34.1252 53.2953 33.999 52.6157 33.879C51.7806 33.7315 50.9425 33.6004 50.1147 33.4196C49.6299 33.3151 49.1889 33.064 48.8516 32.7003C46.3265 29.9837 43.8027 27.2659 41.2802 24.5469C41.2075 24.4686 41.1477 24.3767 41.0889 24.2863C40.454 23.3176 40.6587 22.2959 41.3184 21.529C41.6609 21.1309 42.0281 20.754 42.3887 20.3718L43.3497 19.3699L43.7596 18.9358L44.9707 17.5994L45.6474 16.8642L46.7764 15.6556L47.7362 14.6524C47.7593 14.6277 47.7505 14.5725 47.7559 14.5317ZM54.1123 32.9245C54.2467 32.9471 54.3843 32.9591 54.5157 32.9938C55.1488 33.1579 55.6549 32.961 56.0959 32.4932L59.1034 29.3465L62.4852 25.802L64.1623 24.0301C64.6515 23.4966 64.6414 22.9737 64.1591 22.4338L64.0527 22.3193L55.9896 13.6305C55.7471 13.3685 55.4869 13.2695 55.1418 13.3176L50.9701 13.8829C50.2903 13.9645 49.7318 14.2267 49.2697 14.7293L46.64 17.5608L43.8899 20.5209L42.171 22.3867C41.8285 22.7687 41.8091 23.2132 42.0832 23.6428C42.1539 23.7517 42.2343 23.8541 42.3232 23.9487L49.3595 31.5395C49.8184 32.0388 50.3543 32.3108 51.0048 32.4146L54.1123 32.9245Z" fill="white"/>
<path d="M54.0985 32.9231L51.0046 32.4146C50.3541 32.3108 49.8183 32.0388 49.3595 31.5395L42.3231 23.9488C42.2351 23.854 42.1528 23.7513 42.0831 23.6429C41.8092 23.2134 41.8285 22.7689 42.1709 22.3868L43.8898 20.521L46.6401 17.5608L49.2696 14.7294C49.7317 14.2268 50.2902 13.9646 50.97 13.8829C52.3634 13.7158 53.7524 13.5127 55.1417 13.3177C55.4868 13.2696 55.747 13.3686 55.9896 13.6306L64.0531 22.3198L64.1594 22.4343C64.6413 22.9738 64.6515 23.4967 64.1622 24.0302C63.6129 24.6297 63.0464 25.2134 62.4851 25.8021L59.1032 29.3465L56.0958 32.4933C55.6549 32.9611 55.1487 33.158 54.5156 32.9939C54.3843 32.9592 54.2466 32.9472 54.0985 32.9231ZM49.9412 26.9766L53.5022 30.8104L54.1673 31.5246C54.4713 31.8396 54.7767 31.8534 55.1143 31.5739C55.1989 31.5036 55.2778 31.4253 55.3541 31.3452L57.8909 28.6942L62.7436 23.641C63.0464 23.3265 63.064 23.0494 62.7998 22.7051C62.7528 22.6428 62.6975 22.5869 62.6443 22.5297L55.7884 15.1477C55.7486 15.1048 55.7101 15.0606 55.6675 15.0201C55.3754 14.7442 55.138 14.7415 54.8605 15.0282L52.3606 17.6337C51.1903 18.8548 50.0205 20.0763 48.8511 21.2983L47.0991 23.1331C46.8766 23.3679 46.8645 23.5692 47.0435 23.8336C47.0921 23.9028 47.1458 23.9682 47.2043 24.0292L49.9412 26.9766ZM50.8795 14.8607C50.5425 14.9472 50.2618 15.1329 50.0242 15.3794C49.6588 15.7581 49.3032 16.1474 48.9439 16.533L43.8251 22.0306C43.6704 22.1967 43.5147 22.3637 43.3785 22.5454C43.3327 22.6063 43.3148 22.7261 43.3445 22.792C43.3646 22.839 43.4863 22.8586 43.5631 22.8598C43.7051 22.8618 43.8478 22.8416 43.99 22.8304C44.327 22.8032 44.664 22.7508 44.9999 22.7546C45.6371 22.7616 46.1 22.47 46.521 22.0182L49.867 18.4952L53.4788 14.713C53.5121 14.6789 53.5371 14.6357 53.6006 14.55C53.4627 14.5423 53.37 14.5243 53.2803 14.5342C52.9644 14.5699 52.649 14.6097 52.3341 14.6536C51.8488 14.7194 51.3639 14.7884 50.8795 14.8607Z" fill="black"/>
<path d="M49.9279 26.9622L47.2043 24.029C47.1469 23.9672 47.0907 23.903 47.0436 23.8335C46.8645 23.5691 46.8768 23.3679 47.0992 23.1329L48.8511 21.2981L52.3606 17.6336L54.8604 15.0282C55.138 14.7414 55.3758 14.7444 55.6675 15.0201C55.7101 15.0605 55.7486 15.1047 55.7885 15.1476L62.6444 22.5295L62.7999 22.705C63.064 23.0493 63.0465 23.3264 62.7437 23.6409L57.8909 28.6941L55.3542 31.3451L55.1145 31.5737C54.7768 31.8532 54.4714 31.8394 54.1678 31.525L53.5022 30.8103L49.9279 26.9622ZM55.1744 22.1031L51.6164 21.227C51.4923 21.1964 51.4178 21.2175 51.3326 21.3158L50.744 21.9414L49.6674 23.099C49.4076 23.3887 49.4839 23.8152 49.8197 24.0189L50.4801 23.503L55.0837 28.4593L54.7762 28.9639C54.6421 29.1901 54.7076 29.4192 54.9546 29.5605L56.2884 28.1707L56.8011 27.6096C57.0038 27.348 56.9964 27.0817 56.8063 26.8126L55.8726 27.3525L52.4099 23.6246L52.5416 23.6516L56.8807 24.7717C57.5161 24.9337 58.1542 25.0847 58.7948 25.2244C59.2508 25.3234 59.6186 25.1417 59.8775 24.7711C60.0399 24.5397 60.158 24.2767 60.297 24.0283C60.3693 23.8987 60.3472 23.8043 60.2391 23.6888L55.5037 18.5975C55.2271 18.2998 55.2271 18.2998 55.4665 17.9667C55.7086 17.6301 55.6728 17.4418 55.3091 17.1866L53.6293 18.9483C53.4485 19.1421 53.4522 19.4402 53.5977 19.6558C53.6676 19.76 53.7329 19.7926 53.8474 19.698L54.4416 19.2569L57.6508 22.7119C56.8257 22.5082 56.0003 22.3054 55.1748 22.1035L55.1744 22.1031ZM50.8939 14.8565C51.3736 14.7869 51.8535 14.7192 52.3338 14.6535C52.6487 14.6097 52.9643 14.5699 53.2803 14.5342C53.37 14.5243 53.4626 14.5423 53.6005 14.55L53.4788 14.713L49.867 18.4952L46.5209 22.0182C46.0999 22.47 45.637 22.7616 44.9999 22.7546C44.664 22.7509 44.327 22.8031 43.9899 22.8305C43.8477 22.8416 43.705 22.8618 43.5629 22.8597C43.4861 22.8585 43.3647 22.8391 43.3443 22.7919C43.3148 22.7261 43.3331 22.6058 43.3785 22.5454C43.5148 22.3638 43.6703 22.1967 43.825 22.0306L48.944 16.5329L50.0243 15.3793C50.2619 15.133 50.5424 14.9471 50.8939 14.8565Z" fill="white"/>
<path d="M55.1884 22.1059L57.6508 22.712L54.4416 19.2569L53.8474 19.6979C53.7329 19.7927 53.6676 19.7601 53.5976 19.6561C53.4522 19.4403 53.4486 19.1421 53.6293 18.9485L55.3091 17.1867C55.6727 17.4418 55.7087 17.6302 55.4664 17.9667C55.2266 18.2995 55.2266 18.2995 55.5036 18.5978L60.2392 23.689C60.3472 23.8044 60.3693 23.8988 60.2971 24.0284L59.8775 24.7713C59.6182 25.1414 59.2508 25.3235 58.795 25.2244C58.1544 25.0845 57.5163 24.9336 56.8809 24.7717L52.5414 23.6517C52.5107 23.6436 52.4793 23.6385 52.4099 23.6248L55.8725 27.3527L56.8064 26.8127C56.9964 27.0818 57.0037 27.348 56.8012 27.6098C56.6464 27.8091 56.4633 27.9876 56.2885 28.1708L54.9546 29.5606C54.7076 29.4194 54.6421 29.1902 54.7763 28.9641L55.0838 28.4594L50.4801 23.5031L49.8197 24.0191C49.4839 23.8153 49.4077 23.3888 49.6675 23.0991C50.0184 22.7064 50.384 22.3261 50.7441 21.9417C50.9401 21.733 51.1453 21.5324 51.3326 21.3159C51.4178 21.2176 51.4925 21.1965 51.6165 21.2271L55.1884 22.1059Z" fill="black"/>
</g>
<path d="M15.5522 44.6355H29.448C30.5098 44.6355 31.3647 45.4903 31.3647 46.5522V60.448C31.3647 61.5098 30.5098 62.3647 29.448 62.3647H15.5522C14.4903 62.3647 13.6355 61.5098 13.6355 60.448V46.5522C13.6355 45.4903 14.4903 44.6355 15.5522 44.6355Z" stroke="#FEF5EA" stroke-linecap="round" stroke-linejoin="round"/>
<path d="M22.3057 48.7825C23.1797 48.736 24.0887 49.2348 24.3906 50.3753C25.1328 50.4352 25.6853 51.0796 25.6244 51.8137C25.5971 52.1288 25.4593 52.4241 25.2354 52.6475C25.0115 52.8709 24.7158 53.008 24.4006 53.0346H20.6325C18.8279 52.7922 18.5812 50.1908 20.6325 49.8419C20.7946 49.5346 21.0343 49.2752 21.3279 49.0894C21.6215 48.9036 21.9586 48.7979 22.3057 48.783" stroke="#FEF5EA" stroke-linecap="round" stroke-linejoin="round"/>
<path d="M23.3085 48.9843C23.4546 48.6969 23.708 48.4787 24.0138 48.3769C24.3197 48.2751 24.6533 48.2979 24.9425 48.4404C25.1413 48.5368 25.3097 48.6861 25.4291 48.872C25.5485 49.0579 25.6143 49.2732 25.6193 49.4941C25.6242 49.715 25.5681 49.933 25.4572 50.124C25.3462 50.3151 25.1847 50.4719 24.9904 50.577M24.4024 47.8031V47.1184M23.1777 48.3058L22.688 47.8209M25.6267 50.7323L26.1169 51.2153M26.1342 49.5181H26.8261M25.6267 48.3058L26.1169 47.8209" stroke="#FEF5EA" stroke-linecap="round" stroke-linejoin="round"/>
<path d="M22.7732 59.2539C22.7732 59.3492 22.7353 59.4406 22.6679 59.508C22.6005 59.5754 22.5091 59.6133 22.4138 59.6133C22.3185 59.6133 22.2271 59.5754 22.1597 59.508C22.0923 59.4406 22.0544 59.3492 22.0544 59.2539C22.0544 59.1586 22.0923 59.0672 22.1597 58.9998C22.2271 58.9324 22.3185 58.8945 22.4138 58.8945C22.5091 58.8945 22.6005 58.9324 22.6679 58.9998C22.7353 59.0672 22.7732 59.1586 22.7732 59.2539Z" fill="#FEF5EA"/>
<path d="M22.4138 57.0256C22.6123 57.0256 22.7732 56.8647 22.7732 56.6663C22.7732 56.4678 22.6123 56.3069 22.4138 56.3069C22.2153 56.3069 22.0544 56.4678 22.0544 56.6663C22.0544 56.8647 22.2153 57.0256 22.4138 57.0256Z" fill="#FEF5EA"/>
<path d="M15.1841 57.2927C15.1841 56.526 15.9028 55.9031 16.7174 56.0469C17.2445 56.1427 17.6757 56.6219 17.7237 57.149C17.7237 57.5323 17.6278 57.9635 17.3403 58.2031C16.8132 58.6344 15.1841 59.8802 15.1841 59.8802H17.7237M26.0449 56.5323L24.1546 59.4149M29.5399 56.5323L27.6496 59.4149M18.717 59.5587C19.0045 59.7983 19.2441 59.8941 19.9149 59.8941H20.0586C20.5857 59.8941 21.017 59.4629 21.017 58.9358C21.017 58.4087 20.5857 57.9774 20.0586 57.9774H19.3399M18.717 56.3885C19.0045 56.1489 19.292 56.0531 19.9149 56.0531H20.0586C20.5857 56.0531 21.017 56.4844 21.017 57.0114C21.017 57.5385 20.5857 57.9698 20.0586 57.9698M25.1129 59.8462C24.3941 59.8462 23.8191 59.2712 23.8191 58.6004V57.3066C23.8191 56.5879 24.3941 56.0608 25.065 56.0608C25.7837 56.0608 26.3108 56.6358 26.3108 57.3066V58.6004C26.4066 59.3191 25.8316 59.8462 25.1129 59.8462ZM28.6079 59.8462C27.8892 59.8462 27.3142 59.2712 27.3142 58.6004V57.3066C27.3142 56.5879 27.8892 56.0608 28.56 56.0608C29.2788 56.0608 29.8059 56.6358 29.8059 57.3066V58.6004C29.9017 59.3191 29.3267 59.8462 28.6079 59.8462Z" stroke="#FEF5EA" stroke-linecap="round" stroke-linejoin="round"/>
<path d="M16.3904 30.3172C16.3904 30.0584 16.5446 29.8102 16.819 29.6273C17.0934 29.4444 17.4657 29.3416 17.8538 29.3416H30.5367C30.9248 29.3416 31.2971 29.4444 31.5716 29.6273C31.846 29.8102 32.0001 30.0584 32.0001 30.3172C32.0001 30.5759 31.846 30.8241 31.5716 31.007C31.2971 31.1899 30.9248 31.2928 30.5367 31.2928H17.8538C17.4657 31.2928 17.0934 31.1899 16.819 31.007C16.5446 30.8241 16.3904 30.5759 16.3904 30.3172Z" fill="#28FE72"/>
<path d="M12 30.0732L20.5366 21.5366L12 13" stroke="#28FE72" stroke-width="2" stroke-linecap="round" stroke-linejoin="round"/>
<defs>
<clipPath id="clip0_493_171">
<rect width="22" height="22" fill="white" transform="translate(43 43)"/>
</clipPath>
<clipPath id="clip1_493_171">
<rect width="20" height="20" fill="white" transform="translate(39 22.6113) rotate(-42.8875)"/>
</clipPath>
</defs>
</svg>
