<svg width="48" height="48" viewBox="0 0 48 48" fill="none" xmlns="http://www.w3.org/2000/svg">
<path d="M19.1001 30.3L36.0501 13.35C36.4501 12.95 36.9168 12.75 37.4501 12.75C37.9835 12.75 38.4501 12.95 38.8501 13.35C39.2501 13.75 39.4501 14.2253 39.4501 14.776C39.4501 15.3267 39.2501 15.8013 38.8501 16.2L20.5001 34.6C20.1001 35 19.6335 35.2 19.1001 35.2C18.5668 35.2 18.1001 35 17.7001 34.6L9.10012 26C8.70012 25.6 8.50812 25.1253 8.52412 24.576C8.54012 24.0267 8.74878 23.5513 9.15012 23.15C9.55145 22.7487 10.0268 22.5487 10.5761 22.55C11.1254 22.5513 11.6001 22.7513 12.0001 23.15L19.1001 30.3Z" fill="#151A2E"/>
</svg>
