<svg width="48" height="48" viewBox="0 0 48 48" fill="none" xmlns="http://www.w3.org/2000/svg">
<path fill-rule="evenodd" clip-rule="evenodd" d="M40.0001 10V14L33.5626 13.9997C36.9448 16.9677 39.0177 21.3113 39.0137 26.0441C39.0077 33.3734 34.0223 39.7614 26.9142 41.5481C19.8061 43.3348 12.3927 40.0633 8.92169 33.608C5.45078 27.1528 6.80978 19.1644 12.2201 14.22C12.9845 15.4362 14.0622 16.4241 15.3401 17.08C13.983 18.1764 12.8887 19.5629 12.1377 21.1376C11.3866 22.7123 10.9979 24.4353 11 26.18C11.0985 32.737 16.4423 38.0007 23 38C29.0068 38.099 34.1291 33.6692 34.8975 27.711C35.4716 23.2595 33.4786 19.0166 30.0003 16.5597L30.0001 24H26V10H40.0001ZM19.0001 6C21.2092 6 23 7.79091 23 10C23 12.2092 21.2092 14 19.0001 14C16.791 14 15.0001 12.2092 15.0001 10C15.0001 7.79091 16.791 6 19.0001 6Z" fill="#7A819E"/>
</svg>
