<svg width="48" height="48" viewBox="0 0 48 48" fill="none" xmlns="http://www.w3.org/2000/svg">
<path d="M29.6399 2H18.3599L17.0659 8.474C15.9945 8.95412 14.9758 9.54393 14.0259 10.234L7.76593 8.116L2.12793 17.884L7.08993 22.244C6.9701 23.4116 6.9701 24.5884 7.08993 25.756L2.12793 30.116L7.76793 39.884L14.0259 37.768C14.9699 38.452 15.9859 39.044 17.0659 39.526L18.3599 46H29.6399L30.9339 39.526C32.0053 39.0459 33.0241 38.4561 33.9739 37.766L40.2339 39.884L45.8739 30.116L40.9099 25.756C41.0298 24.5884 41.0298 23.4116 40.9099 22.244L45.8719 17.884L40.2319 8.116L33.9759 10.232C33.026 9.54263 32.0072 8.95349 30.9359 8.474L29.6399 2ZM23.9999 32C21.8782 32 19.8434 31.1571 18.3431 29.6569C16.8428 28.1566 15.9999 26.1217 15.9999 24C15.9999 21.8783 16.8428 19.8434 18.3431 18.3431C19.8434 16.8429 21.8782 16 23.9999 16C26.1217 16 28.1565 16.8429 29.6568 18.3431C31.1571 19.8434 31.9999 21.8783 31.9999 24C31.9999 26.1217 31.1571 28.1566 29.6568 29.6569C28.1565 31.1571 26.1217 32 23.9999 32Z" fill="#7A819E"/>
</svg>
