<svg width="32" height="32" viewBox="0 0 32 32" fill="none" xmlns="http://www.w3.org/2000/svg">
<path d="M15.9977 8.66963C14.0339 8.66969 12.1359 9.37735 10.6515 10.663C9.16703 11.9486 8.19554 13.726 7.915 15.6696H7.83333C6.28624 15.6696 4.80251 16.2842 3.70854 17.3782C2.61458 18.4721 2 19.9559 2 21.503C2 23.0501 2.61458 24.5338 3.70854 25.6278C4.80251 26.7217 6.28624 27.3363 7.83333 27.3363H24.1667C25.7138 27.3363 27.1975 26.7217 28.2915 25.6278C29.3854 24.5338 30 23.0501 30 21.503C30 19.9559 29.3854 18.4721 28.2915 17.3782C27.1975 16.2842 25.7138 15.6696 24.1667 15.6696H24.0803C23.7999 13.7264 22.8287 11.9493 21.3447 10.6637C19.8608 9.37816 17.9634 8.67025 16 8.66963M2 11.003C2 12.4123 2.41767 13.7236 3.134 14.8226C3.99033 14.2183 4.97033 13.7726 6.02733 13.537C6.63375 11.712 7.72866 10.0881 9.19311 8.84167C10.6576 7.59524 12.4356 6.77393 14.334 6.46696C13.406 5.37498 12.1652 4.59413 10.7792 4.22989C9.39322 3.86565 7.92884 3.93557 6.58386 4.4302C5.23889 4.92483 4.07813 5.82035 3.25838 6.99578C2.43863 8.17121 1.99939 9.56992 2 11.003Z" fill="#FFE530"/>
<path d="M15.9977 8.66943C14.0339 8.66949 12.1359 9.37715 10.6515 10.6628C9.16703 11.9484 8.19554 13.7258 7.915 15.6694H7.83333C6.28624 15.6694 4.80251 16.284 3.70854 17.378C2.61458 18.4719 2 19.9557 2 21.5028C2 23.0499 2.61458 24.5336 3.70854 25.6276C4.80251 26.7215 6.28624 27.3361 7.83333 27.3361H24.1667C25.7138 27.3361 27.1975 26.7215 28.2915 25.6276C29.3854 24.5336 30 23.0499 30 21.5028C30 19.9557 29.3854 18.4719 28.2915 17.378C27.1975 16.284 25.7138 15.6694 24.1667 15.6694H24.0803C23.7999 13.7262 22.8287 11.9491 21.3447 10.6635C19.8608 9.37797 17.9634 8.67005 16 8.66943" fill="#83CBF0"/>
</svg>
