<svg width="32" height="32" viewBox="0 0 32 32" fill="none" xmlns="http://www.w3.org/2000/svg">
<path d="M8.06766 13.0151C8.30609 11.0793 9.24419 9.29749 10.7052 8.00537C12.1663 6.71325 14.0494 6 15.9998 6C17.9503 6 19.8334 6.71325 21.2944 8.00537C22.7554 9.29749 23.6935 11.0793 23.932 13.0151C25.6149 13.1257 27.1887 13.8867 28.3205 15.137C29.4523 16.3874 30.0532 18.0291 29.9961 19.7146C29.939 21.4002 29.2283 22.9974 28.0145 24.1683C26.8007 25.3392 25.1789 25.9919 23.4924 25.9883H8.50723C6.82071 25.9919 5.19895 25.3392 3.98513 24.1683C2.77131 22.9974 2.06066 21.4002 2.00354 19.7146C1.94643 18.0291 2.54735 16.3874 3.67913 15.137C4.81091 13.8867 6.38477 13.1257 8.06766 13.0151Z" fill="#83CBF0"/>
</svg>
