<svg width="32" height="32" viewBox="0 0 32 32" fill="none" xmlns="http://www.w3.org/2000/svg">
<path d="M17.7506 11.2497C22.0641 11.2497 24.5105 14.0041 24.8657 17.3289H24.9742C27.7496 17.3289 30 19.4936 30 22.164C30 24.8343 27.7496 26.999 24.9742 26.999H10.5269C7.75158 26.999 5.50119 24.8343 5.50119 22.164C5.50119 19.4936 7.75158 17.3289 10.5269 17.3289H10.6354C10.9942 13.9814 13.4371 11.2497 17.7506 11.2497ZM13.1868 6C15.7347 6 17.9571 7.44893 19.0543 9.57858C18.6218 9.5253 18.1864 9.499 17.7506 9.49983C13.5683 9.49983 10.5199 11.787 9.4315 15.25L9.32301 15.6245L9.24251 15.9518L8.95377 16.0043C7.89677 16.2189 6.90944 16.6922 6.08005 17.3817C5.25067 18.0712 4.60508 18.9555 4.20101 19.9556C3.36736 19.4477 2.71744 18.6871 2.3457 17.7845C1.97397 16.8819 1.89981 15.8842 2.13399 14.9365C2.36818 13.9888 2.89851 13.1406 3.64789 12.515C4.39727 11.8894 5.32664 11.5191 6.3009 11.458L6.68939 11.4492C6.95922 9.92213 7.7584 8.5389 8.9466 7.54239C10.1348 6.54588 11.6361 5.99979 13.1868 6Z" fill="#4040FF"/>
<path d="M17.7504 11.2498C22.0639 11.2498 24.5103 14.0041 24.8655 17.329H24.974C27.7494 17.329 29.9998 19.4936 29.9998 22.164C29.9998 24.8343 27.7494 26.999 24.974 26.999H10.5267C7.75137 26.999 5.50098 24.8343 5.50098 22.164C5.50098 19.4936 7.75137 17.329 10.5267 17.329H10.6352C10.994 13.9814 13.4368 11.2498 17.7504 11.2498Z" fill="#BAE6FF"/>
</svg>
