<svg width="32" height="32" viewBox="0 0 32 32" fill="none" xmlns="http://www.w3.org/2000/svg">
<path d="M16 4.00156C20.9296 4.00156 23.7249 7.26355 24.1309 11.2038H24.2553C25.0088 11.2025 25.7551 11.3498 26.4516 11.6371C27.1481 11.9244 27.7812 12.3461 28.3147 12.8781C28.8481 13.4102 29.2716 14.0421 29.5607 14.7378C29.8499 15.4336 29.9992 16.1795 30 16.9329C29.999 17.6861 29.8496 18.4317 29.5604 19.1271C29.2713 19.8226 28.848 20.4543 28.3147 20.9861C27.7814 21.518 27.1485 21.9396 26.4523 22.2268C25.7561 22.5141 25.0101 22.6615 24.2569 22.6604H23.3516L20.8891 26.7624C20.7417 27.0196 20.502 27.211 20.2186 27.2978C19.9352 27.3846 19.6294 27.3602 19.3633 27.2298C19.0972 27.0993 18.8907 26.8724 18.7858 26.5952C18.6809 26.318 18.6854 26.0113 18.7984 25.7373L18.8684 25.5958L20.6573 22.6604H17.3347L14.8722 26.7624C14.7248 27.0196 14.4851 27.211 14.2017 27.2978C13.9183 27.3846 13.6125 27.3602 13.3464 27.2298C13.0803 27.0993 12.8738 26.8724 12.7689 26.5952C12.664 26.318 12.6685 26.0113 12.7816 25.7373L12.8516 25.5958L14.6404 22.6604H11.3131L8.85378 26.7624C8.70639 27.0196 8.46666 27.211 8.18327 27.2978C7.89989 27.3846 7.5941 27.3602 7.32799 27.2298C7.06188 27.0993 6.8554 26.8724 6.75049 26.5952C6.64557 26.318 6.65009 26.0113 6.76311 25.7373L6.83311 25.5958L8.61889 22.6604H7.74467C6.99136 22.6617 6.24519 22.5145 5.54878 22.2273C4.85237 21.9401 4.21935 21.5185 3.68589 20.9867C3.15243 20.4548 2.72897 19.823 2.4397 19.1275C2.15043 18.4319 2.00102 17.6862 2 16.9329C2.00061 16.1793 2.14972 15.4333 2.43881 14.7373C2.72789 14.0414 3.15129 13.4093 3.68479 12.8771C4.21829 12.3449 4.85145 11.9231 5.54806 11.6357C6.24468 11.3483 6.9911 11.201 7.74467 11.2022H7.86911C8.27667 7.23556 11.0704 4.00156 16 4.00156Z" fill="#83CBF0"/>
</svg>
