<svg width="32" height="32" viewBox="0 0 32 32" fill="none" xmlns="http://www.w3.org/2000/svg">
<path d="M15.9992 5.30294C20.9291 5.30294 23.7245 8.56512 24.1321 12.5056H24.2566C25.0098 12.5045 25.7558 12.6519 26.4521 12.9392C27.1484 13.2265 27.7812 13.6481 28.3146 14.18C28.8479 14.7119 29.2712 15.3436 29.5604 16.0391C29.8496 16.7346 29.999 17.4802 30 18.2334C29.9992 18.9868 29.85 19.7326 29.5609 20.4283C29.2718 21.1239 28.8485 21.7558 28.3151 22.2879C27.7818 22.8199 27.1488 23.2417 26.4525 23.5291C25.7561 23.8165 25.0099 23.9639 24.2566 23.9629H23.4554L20.8948 28.0495C20.7474 28.3067 20.5077 28.4981 20.2243 28.5849C19.9409 28.6717 19.6351 28.6474 19.3689 28.5169C19.1028 28.3864 18.8963 28.1595 18.7914 27.8823C18.6865 27.6051 18.691 27.2984 18.804 27.0244L18.874 26.8828L20.761 23.9629H17.4382L14.8776 28.0495C14.7302 28.3067 14.4905 28.4981 14.2071 28.5849C13.9237 28.6717 13.6179 28.6474 13.3517 28.5169C13.0856 28.3864 12.8791 28.1595 12.7742 27.8823C12.6693 27.6051 12.6738 27.2984 12.7868 27.0244L12.8568 26.8828L14.7438 23.9629H11.421L8.86038 28.0495C8.71298 28.3067 8.47324 28.4981 8.18984 28.5849C7.90644 28.6717 7.60063 28.6474 7.3345 28.5169C7.06838 28.3864 6.86189 28.1595 6.75697 27.8823C6.65205 27.6051 6.65657 27.2984 6.7696 27.0244L6.8396 26.8828L8.72659 23.9629H7.74343C6.99021 23.9639 6.24417 23.8165 5.5479 23.5292C4.85163 23.2419 4.21876 22.8203 3.68543 22.2884C3.15211 21.7565 2.72876 21.1248 2.43958 20.4293C2.15039 19.7338 2.00102 18.9882 2 18.235C2.00082 17.4816 2.15003 16.7358 2.43913 16.0402C2.72823 15.3445 3.15154 14.7126 3.68488 14.1805C4.21823 13.6485 4.85117 13.2267 5.54754 12.9393C6.24391 12.6519 6.99008 12.5045 7.74343 12.5056H7.86788C8.27702 8.53867 11.0709 5.30294 15.9992 5.30294ZM12.6593 4.24821L12.3917 4.33844C9.61798 5.31849 7.62831 7.4575 6.76804 10.2857L6.65915 10.6746L6.56892 11.0448L6.24846 11.1039C5.31716 11.2983 4.43396 11.6764 3.65054 12.2162C2.93754 10.9907 2.67121 9.55603 2.89688 8.15629C3.12254 6.75655 3.82626 5.47825 4.88827 4.53892C5.95028 3.5996 7.30497 3.05729 8.72179 3.00429C10.1386 2.95129 11.53 3.39086 12.6593 4.24821Z" fill="#FFE530"/>
<path d="M15.9992 5.30322C20.9291 5.30322 23.7245 8.5654 24.1321 12.5058H24.2566C25.0098 12.5048 25.7558 12.6522 26.4521 12.9395C27.1484 13.2268 27.7812 13.6484 28.3146 14.1803C28.8479 14.7122 29.2712 15.3439 29.5604 16.0394C29.8496 16.7349 29.999 17.4805 30 18.2337C29.9992 18.9871 29.85 19.7329 29.5609 20.4285C29.2718 21.1242 28.8485 21.7561 28.3151 22.2882C27.7818 22.8202 27.1488 23.242 26.4525 23.5294C25.7561 23.8168 25.0099 23.9642 24.2566 23.9631H23.4554L20.8948 28.0498C20.7474 28.307 20.5077 28.4984 20.2243 28.5852C19.9409 28.672 19.6351 28.6476 19.3689 28.5172C19.1028 28.3867 18.8963 28.1598 18.7914 27.8826C18.6865 27.6054 18.691 27.2986 18.804 27.0246L18.874 26.8831L20.761 23.9631H17.4382L14.8776 28.0498C14.7302 28.307 14.4905 28.4984 14.2071 28.5852C13.9237 28.672 13.6179 28.6476 13.3517 28.5172C13.0856 28.3867 12.8791 28.1598 12.7742 27.8826C12.6693 27.6054 12.6738 27.2986 12.7868 27.0246L12.8568 26.8831L14.7438 23.9631H11.421L8.86038 28.0498C8.71298 28.307 8.47324 28.4984 8.18984 28.5852C7.90644 28.672 7.60063 28.6476 7.3345 28.5172C7.06838 28.3867 6.86189 28.1598 6.75697 27.8826C6.65205 27.6054 6.65657 27.2986 6.7696 27.0246L6.8396 26.8831L8.72659 23.9631H7.74343C6.99021 23.9642 6.24417 23.8168 5.5479 23.5295C4.85163 23.2422 4.21876 22.8206 3.68543 22.2887C3.15211 21.7568 2.72876 21.1251 2.43958 20.4296C2.15039 19.7341 2.00102 18.9885 2 18.2353C2.00082 17.4819 2.15003 16.7361 2.43913 16.0404C2.72823 15.3448 3.15154 14.7129 3.68488 14.1808C4.21823 13.6488 4.85117 13.227 5.54754 12.9396C6.24391 12.6522 6.99008 12.5048 7.74343 12.5058H7.86788C8.27702 8.53896 11.0709 5.30322 15.9992 5.30322Z" fill="#83CBF0"/>
</svg>
