<svg width="32" height="32" viewBox="0 0 32 32" fill="none" xmlns="http://www.w3.org/2000/svg">
<path d="M18.8214 18.9767C18.9937 19.1319 19.0974 19.3493 19.1095 19.581C19.1217 19.8127 19.0413 20.0397 18.8861 20.2121L17.0889 22.2543H20.3753C20.5396 22.2548 20.7005 22.3015 20.8395 22.3892C20.9785 22.4769 21.09 22.6019 21.1612 22.75C21.2324 22.8981 21.2605 23.0633 21.2422 23.2266C21.2239 23.3899 21.16 23.5448 21.0578 23.6734L16.7705 28.9232C16.6259 29.1049 16.4151 29.2217 16.1844 29.248C15.9536 29.2742 15.722 29.2078 15.5403 29.0632C15.3586 28.9186 15.2417 28.7078 15.2155 28.4771C15.1892 28.2464 15.2557 28.0147 15.4003 27.833L18.5589 24.0042H15.1255C14.9565 24.0042 14.7911 23.9552 14.6493 23.8632C14.5075 23.7711 14.3955 23.64 14.3266 23.4856C14.2578 23.3313 14.2351 23.1603 14.2613 22.9933C14.2876 22.8263 14.3617 22.6705 14.4746 22.5448L17.5842 19.0432C17.661 18.9574 17.7539 18.8877 17.8577 18.8379C17.9615 18.7882 18.074 18.7594 18.189 18.7532C18.3039 18.747 18.4189 18.7636 18.5274 18.8019C18.6359 18.8403 18.7358 18.8997 18.8214 18.9767Z" fill="#FFE530"/>
<path d="M13.1869 3C15.7347 3 17.9571 4.44893 19.0543 6.57859C18.6218 6.52531 18.1864 6.49901 17.7506 6.49984C13.5683 6.49984 10.52 8.78698 9.43152 12.2501L9.32303 12.6246L9.24253 12.9518L8.95379 13.0043C7.89679 13.219 6.90946 13.6922 6.08007 14.3817C5.25068 15.0713 4.60508 15.9556 4.20101 16.9556C3.36737 16.4477 2.71744 15.6872 2.3457 14.7845C1.97397 13.8819 1.8998 12.8842 2.13399 11.9365C2.36818 10.9889 2.89851 10.1406 3.64789 9.515C4.39728 8.88942 5.32665 8.51914 6.30092 8.458L6.6894 8.44925C6.95924 6.92215 7.75842 5.53891 8.94662 4.54239C10.1348 3.54588 11.6361 2.99979 13.1869 3Z" fill="#29A5FF"/>
<path d="M17.7506 8.25C22.0641 8.25 24.5105 11.0044 24.8657 14.3292H24.9742C27.7496 14.3292 30 16.4939 30 19.1643C30 21.8346 27.7496 23.9993 24.9742 23.9993H22.8568C23.3835 22.5188 22.4526 20.8267 20.8479 20.5449L20.6257 20.5152C20.7799 19.9452 20.7375 19.3399 20.5052 18.797C20.273 18.2542 19.8644 17.8055 19.3457 17.5235C18.827 17.2414 18.2283 17.1425 17.6464 17.2428C17.0645 17.343 16.5334 17.6365 16.1389 18.0758L13.1745 21.3744C12.8562 21.7226 12.6391 22.1512 12.5466 22.6138C12.4541 23.0764 12.4897 23.5554 12.6495 23.9993H10.5269C7.75151 23.9993 5.50111 21.8346 5.50111 19.1643C5.50111 16.4939 7.75151 14.3292 10.5269 14.3292H10.6354C10.9941 10.9816 13.437 8.25 17.7506 8.25Z" fill="#83CBF0"/>
</svg>
