<svg width="32" height="32" viewBox="0 0 32 32" fill="none" xmlns="http://www.w3.org/2000/svg">
<path d="M18.8216 18.9769C18.994 19.1322 19.0977 19.3495 19.1098 19.5812C19.1219 19.8129 19.0416 20.0399 18.8864 20.2124L17.0892 22.2545H20.3756C20.5399 22.255 20.7008 22.3018 20.8397 22.3894C20.9787 22.4771 21.0902 22.6022 21.1614 22.7503C21.2327 22.8984 21.2607 23.0635 21.2424 23.2268C21.2242 23.3902 21.1602 23.545 21.058 23.6737L16.7707 28.9235C16.6261 29.1051 16.4153 29.222 16.1846 29.2482C15.9539 29.2745 15.7222 29.208 15.5405 29.0634C15.3588 28.9189 15.242 28.708 15.2157 28.4773C15.1895 28.2466 15.256 28.015 15.4005 27.8333L18.5591 24.0044H15.1258C14.9568 24.0044 14.7914 23.9554 14.6496 23.8634C14.5078 23.7714 14.3957 23.6403 14.3269 23.4859C14.258 23.3315 14.2353 23.1605 14.2616 22.9935C14.2879 22.8266 14.3619 22.6708 14.4748 22.545L17.5844 19.0434C17.6612 18.9577 17.7542 18.8879 17.8579 18.8382C17.9617 18.7884 18.0743 18.7596 18.1892 18.7535C18.3042 18.7473 18.4192 18.7638 18.5277 18.8022C18.6362 18.8405 18.7361 18.8999 18.8216 18.9769Z" fill="#E2DF22"/>
<path d="M13.1869 3C15.7347 3 17.9571 4.44893 19.0543 6.57859C18.6218 6.52531 18.1864 6.49901 17.7506 6.49984C13.5683 6.49984 10.52 8.78699 9.43152 12.2501L9.32303 12.6246L9.24253 12.9518L8.95379 13.0043C7.89679 13.219 6.90946 13.6922 6.08007 14.3817C5.25068 15.0713 4.60508 15.9556 4.20101 16.9556C3.36737 16.4477 2.71744 15.6872 2.3457 14.7845C1.97397 13.8819 1.8998 12.8842 2.13399 11.9365C2.36818 10.9889 2.89851 10.1406 3.64789 9.515C4.39728 8.88942 5.32665 8.51914 6.30092 8.458L6.6894 8.44925C6.95924 6.92215 7.75842 5.53891 8.94662 4.54239C10.1348 3.54588 11.6361 2.99979 13.1869 3Z" fill="#4040FF"/>
<path d="M17.7504 8.24976C22.064 8.24976 24.5104 11.0041 24.8656 14.329H24.9741C27.7495 14.329 29.9999 16.4936 29.9999 19.164C29.9999 21.8344 27.7495 23.999 24.9741 23.999H22.8567C23.3834 22.5186 22.4524 20.8264 20.8478 20.5447L20.6255 20.5149C20.7798 19.945 20.7373 19.3397 20.5051 18.7968C20.2728 18.2539 19.8643 17.8052 19.3456 17.5232C18.8268 17.2412 18.2281 17.1423 17.6462 17.2425C17.0643 17.3427 16.5332 17.6362 16.1387 18.0756L13.1744 21.3742C12.8561 21.7224 12.639 22.1509 12.5465 22.6135C12.4539 23.0761 12.4895 23.5552 12.6494 23.999H10.5267C7.75137 23.999 5.50098 21.8344 5.50098 19.164C5.50098 16.4936 7.75137 14.329 10.5267 14.329H10.6352C10.994 10.9814 13.4369 8.24976 17.7504 8.24976Z" fill="#BAE6FF"/>
</svg>
