<svg width="32" height="32" viewBox="0 0 32 32" fill="none" xmlns="http://www.w3.org/2000/svg">
<path d="M15.9998 2C16.3479 2 16.6817 2.13828 16.9279 2.38442C17.174 2.63056 17.3123 2.9644 17.3123 3.3125V7.145L19.8848 4.5725C20.005 4.44355 20.1499 4.34012 20.3109 4.26838C20.4719 4.19665 20.6457 4.15807 20.8219 4.15496C20.9981 4.15186 21.1732 4.18427 21.3366 4.25029C21.5 4.3163 21.6485 4.41455 21.7731 4.53918C21.8978 4.66382 21.996 4.81228 22.062 4.9757C22.128 5.13913 22.1604 5.31418 22.1573 5.49041C22.1542 5.66664 22.1157 5.84044 22.0439 6.00144C21.9722 6.16244 21.8688 6.30734 21.7398 6.4275L17.3123 10.855V14.6875H21.1448L25.5723 10.26C25.6925 10.131 25.8374 10.0276 25.9984 9.95588C26.1594 9.88415 26.3332 9.84557 26.5094 9.84246C26.6856 9.83936 26.8607 9.87177 27.0241 9.93779C27.1875 10.0038 27.336 10.102 27.4606 10.2267C27.5853 10.3513 27.6835 10.4998 27.7495 10.6632C27.8155 10.8266 27.8479 11.0017 27.8448 11.1779C27.8417 11.3541 27.8032 11.5279 27.7314 11.6889C27.6597 11.8499 27.5563 11.9948 27.4273 12.115L24.8548 14.6875H28.6873C29.0354 14.6875 29.3692 14.8258 29.6154 15.0719C29.8615 15.3181 29.9998 15.6519 29.9998 16C29.9998 16.3481 29.8615 16.6819 29.6154 16.9281C29.3692 17.1742 29.0354 17.3125 28.6873 17.3125H24.8548L27.4273 19.885C27.5563 20.0052 27.6597 20.1501 27.7314 20.3111C27.8032 20.4721 27.8417 20.6459 27.8448 20.8221C27.8479 20.9983 27.8155 21.1734 27.7495 21.3368C27.6835 21.5002 27.5853 21.6487 27.4606 21.7733C27.336 21.8979 27.1875 21.9962 27.0241 22.0622C26.8607 22.1282 26.6856 22.1606 26.5094 22.1575C26.3332 22.1544 26.1594 22.1159 25.9984 22.0441C25.8374 21.9724 25.6925 21.869 25.5723 21.74L21.1448 17.3125H17.3123V21.145L21.7398 25.5725C21.8688 25.6927 21.9722 25.8376 22.0439 25.9986C22.1157 26.1596 22.1542 26.3334 22.1573 26.5096C22.1604 26.6858 22.128 26.8609 22.062 27.0243C21.996 27.1877 21.8978 27.3362 21.7731 27.4608C21.6485 27.5854 21.5 27.6837 21.3366 27.7497C21.1732 27.8157 20.9981 27.8481 20.8219 27.845C20.6457 27.8419 20.4719 27.8034 20.3109 27.7316C20.1499 27.6599 20.005 27.5565 19.8848 27.4275L17.3123 24.855V28.6875C17.3123 29.0356 17.174 29.3694 16.9279 29.6156C16.6817 29.8617 16.3479 30 15.9998 30C15.6517 30 15.3179 29.8617 15.0717 29.6156C14.8256 29.3694 14.6873 29.0356 14.6873 28.6875V24.855L12.1148 27.4275C11.866 27.6593 11.5369 27.7856 11.1969 27.7796C10.8569 27.7736 10.5324 27.6358 10.292 27.3953C10.0515 27.1549 9.91374 26.8304 9.90775 26.4904C9.90175 26.1504 10.028 25.8213 10.2598 25.5725L14.6873 21.145V17.3125H10.8548L6.4273 21.74C6.1785 21.9718 5.84941 22.0981 5.50939 22.0921C5.16936 22.0861 4.84494 21.9483 4.60446 21.7078C4.36399 21.4674 4.22624 21.1429 4.22025 20.8029C4.21425 20.4629 4.34046 20.1338 4.5723 19.885L7.1448 17.3125H3.3123C2.9642 17.3125 2.63037 17.1742 2.38422 16.9281C2.13808 16.6819 1.9998 16.3481 1.9998 16C1.9998 15.6519 2.13808 15.3181 2.38422 15.0719C2.63037 14.8258 2.9642 14.6875 3.3123 14.6875H7.1448L4.5723 12.115C4.34046 11.8662 4.21425 11.5371 4.22025 11.1971C4.22624 10.8571 4.36399 10.5326 4.60446 10.2922C4.84494 10.0517 5.16936 9.91394 5.50939 9.90794C5.84941 9.90194 6.1785 10.0282 6.4273 10.26L10.8548 14.6875H14.6873V10.855L10.2598 6.4275C10.028 6.17869 9.90175 5.84961 9.90775 5.50959C9.91374 5.16956 10.0515 4.84513 10.292 4.60466C10.5324 4.36419 10.8569 4.22644 11.1969 4.22044C11.5369 4.21444 11.866 4.34066 12.1148 4.5725L14.6873 7.145V3.3125C14.6873 2.9644 14.8256 2.63056 15.0717 2.38442C15.3179 2.13828 15.6517 2 15.9998 2Z" fill="#83CBF0"/>
</svg>
