<svg width="32" height="32" viewBox="0 0 32 32" fill="none" xmlns="http://www.w3.org/2000/svg">
<path d="M9 27H23C23.2499 26.9995 23.4909 27.0927 23.6756 27.261C23.8602 27.4294 23.9752 27.6608 23.9978 27.9096C24.0203 28.1585 23.9489 28.4068 23.7976 28.6057C23.6462 28.8045 23.4259 28.9395 23.18 28.984L23 29H9C8.75011 29.0005 8.5091 28.9073 8.32443 28.739C8.13977 28.5706 8.02483 28.3392 8.00225 28.0904C7.97967 27.8415 8.05109 27.5932 8.20244 27.3943C8.35379 27.1955 8.57411 27.0605 8.82 27.016L9 27ZM5.008 23H26.992C27.548 23 28 23.448 28 24C28 24.49 27.644 24.9 27.174 24.984L26.994 25H5.006C4.87417 25.0008 4.74349 24.9755 4.62147 24.9256C4.49945 24.8757 4.38851 24.8022 4.29501 24.7092C4.20152 24.6163 4.12732 24.5058 4.07669 24.3841C4.02606 24.2624 4 24.1318 4 24C4 23.51 4.356 23.1 4.826 23.016L5.008 23ZM16 3C20.93 3 23.726 6.148 24.132 9.948H24.256C27.428 9.948 30 12.422 30 15.474C30 18.526 27.428 21 24.256 21H7.744C4.572 21 2 18.526 2 15.474C2 12.534 4.384 10.132 7.394 9.958L7.868 9.948C8.278 6.122 11.07 3 16 3Z" fill="#BAE6FF"/>
</svg>
