<svg width="32" height="32" viewBox="0 0 32 32" fill="none" xmlns="http://www.w3.org/2000/svg">
<path d="M9.00019 27H23.0002C23.2501 26.9995 23.4911 27.0927 23.6758 27.261C23.8604 27.4294 23.9754 27.6608 23.9979 27.9096C24.0205 28.1585 23.9491 28.4068 23.7978 28.6057C23.6464 28.8045 23.4261 28.9395 23.1802 28.984L23.0002 29H9.00019C8.7503 29.0005 8.50929 28.9073 8.32463 28.739C8.13996 28.5706 8.02502 28.3392 8.00244 28.0904C7.97987 27.8415 8.05128 27.5932 8.20263 27.3943C8.35398 27.1955 8.5743 27.0605 8.82019 27.016L9.00019 27ZM5.00819 23H26.9922C27.5482 23 28.0002 23.448 28.0002 24C28.0002 24.49 27.6442 24.9 27.1742 24.984L26.9942 25H5.00619C4.87437 25.0008 4.74369 24.9755 4.62167 24.9256C4.49965 24.8757 4.3887 24.8022 4.29521 24.7092C4.20171 24.6163 4.12751 24.5058 4.07689 24.3841C4.02626 24.2624 4.00019 24.1318 4.00019 24C4.00019 23.51 4.35619 23.1 4.82619 23.016L5.00819 23ZM16.0002 3C20.9302 3 23.7262 6.148 24.1322 9.948H24.2562C27.4282 9.948 30.0002 12.422 30.0002 15.474C30.0002 18.526 27.4282 21 24.2562 21H7.74419C4.5722 21 2.00019 18.526 2.00019 15.474C2.00019 12.534 4.38419 10.132 7.39419 9.958L7.86819 9.948C8.27819 6.122 11.0702 3 16.0002 3Z" fill="#83CBF0"/>
</svg>
