<svg width="42" height="42" viewBox="0 0 42 42" fill="none" xmlns="http://www.w3.org/2000/svg">
<path d="M15 28.5C15 28.1022 15.1778 27.7206 15.4943 27.4393C15.8107 27.158 16.2399 27 16.6875 27H31.3125C31.7601 27 32.1893 27.158 32.5057 27.4393C32.8222 27.7206 33 28.1022 33 28.5C33 28.8978 32.8222 29.2794 32.5057 29.5607C32.1893 29.842 31.7601 30 31.3125 30H16.6875C16.2399 30 15.8107 29.842 15.4943 29.5607C15.1778 29.2794 15 28.8978 15 28.5Z" fill="#28FE72"/>
<path d="M10.5 28.75L19.25 20L10.5 11.25" stroke="#28FE72" stroke-width="3" stroke-linecap="round" stroke-linejoin="round"/>
</svg>
